{"glyphs":{":":{"x_min":0,"x_max":242,"ha":242,"o":"m 61 526 l 173 526 l 173 409 l 61 409 z m 61 117 l 173 117 l 173 0 l 61 0 z"},"$":{"x_min":0,"x_max":456,"ha":456,"o":"m 201 69 q 125 75 86 119 q 47 163 47 226 q 47 237 48 240 q 48 244 48 245 l 139 245 l 139 236 q 139 198 156 176 q 172 154 201 147 l 201 314 q 156 329 126 344 q 97 360 77 389 q 57 418 57 465 q 57 529 96 568 q 135 608 201 616 l 201 723 l 252 723 l 252 617 q 318 612 356 572 q 395 532 395 474 l 394 454 l 304 454 l 304 463 q 304 492 291 512 q 278 533 252 540 l 252 391 q 300 376 331 360 q 362 345 384 314 q 406 284 406 233 q 406 155 364 115 q 323 75 252 69 l 252 -49 l 201 -49 z m 201 540 q 173 534 160 514 q 148 495 148 472 q 148 449 162 434 q 175 420 201 409 z m 315 220 q 315 248 298 266 q 282 283 252 296 l 252 145 q 280 151 298 170 q 315 188 315 220 z"},"?":{"x_min":0,"x_max":470,"ha":470,"o":"m 195 237 q 195 280 210 309 q 226 338 257 373 q 288 409 304 438 q 319 466 319 509 q 319 543 302 578 q 284 612 236 612 q 184 612 166 573 q 147 534 147 486 l 148 459 l 47 459 q 44 483 44 494 q 44 583 96 640 q 148 698 244 698 q 296 698 336 676 q 377 653 400 612 q 423 572 423 520 q 423 471 412 437 q 402 403 387 382 q 372 360 348 333 q 320 303 307 280 q 294 258 294 222 l 294 185 l 195 185 z m 189 117 l 301 117 l 301 0 l 189 0 z"},"<":{"x_min":0,"x_max":479,"ha":479,"o":"m 41 199 l 41 312 l 439 513 l 439 414 l 128 256 l 439 99 l 439 0 z"},"'":{"x_min":0,"x_max":169,"ha":169,"o":"m 36 539 l 36 686 l 130 686 l 130 539 l 109 407 l 58 407 z"},"=":{"x_min":0,"x_max":479,"ha":479,"o":"m 40 405 l 438 405 l 438 315 l 40 315 z m 40 192 l 438 192 l 438 103 l 40 103 z"},"a":{"x_min":0,"x_max":456,"ha":456,"o":"m 28 136 q 28 237 96 276 q 165 315 292 315 l 292 378 q 292 416 276 436 q 260 457 218 457 q 178 457 160 436 q 143 414 143 383 l 143 370 l 50 370 q 49 376 49 392 q 49 461 96 500 q 143 538 221 538 q 303 538 344 499 q 386 460 386 388 l 386 105 q 386 88 394 79 q 402 70 414 70 l 444 70 l 444 4 q 422 -9 385 -9 q 352 -9 329 8 q 306 26 298 57 l 293 57 q 248 -12 164 -12 q 112 -12 70 20 q 28 53 28 136 z m 292 195 l 292 237 q 212 237 168 217 q 125 197 125 143 q 125 104 142 87 q 158 70 193 70 q 234 70 263 104 q 292 138 292 195 z"},"L":{"x_min":0,"x_max":470,"ha":470,"o":"m 67 686 l 167 686 l 167 93 l 451 93 l 451 0 l 67 0 z"},"3":{"x_min":0,"x_max":456,"ha":456,"o":"m 32 194 l 32 205 l 129 205 l 129 191 q 129 132 153 101 q 177 70 223 70 q 269 70 296 100 q 322 130 322 190 q 322 308 219 308 l 170 308 l 170 389 l 221 389 q 259 389 284 419 q 310 449 310 505 q 310 561 287 588 q 264 616 226 616 q 186 616 164 587 q 141 558 141 501 l 141 489 l 44 489 l 44 510 q 44 566 67 608 q 90 651 131 674 q 172 698 225 698 q 308 698 358 649 q 407 600 407 510 q 407 453 384 416 q 360 380 318 356 l 318 352 q 364 335 392 292 q 419 249 419 184 q 419 94 366 41 q 313 -12 228 -12 q 134 -12 83 44 q 32 99 32 194 z"},";":{"x_min":0,"x_max":242,"ha":242,"o":"m 61 526 l 173 526 l 173 409 l 61 409 z m 106 0 l 61 0 l 61 117 l 173 117 l 173 10 l 119 -134 l 61 -134 z"},"J":{"x_min":0,"x_max":425,"ha":425,"o":"m 12 163 l 12 211 l 112 211 l 112 163 q 112 122 131 100 q 150 78 187 78 q 222 78 241 100 q 260 122 260 163 l 260 686 l 361 686 l 361 163 q 361 78 316 33 q 271 -12 187 -12 q 103 -12 58 33 q 12 78 12 163 z"},"V":{"x_min":0,"x_max":547,"ha":547,"o":"m 5 686 l 114 686 l 275 128 l 279 128 l 444 686 l 542 686 l 333 0 l 214 0 z"},"\"":{"x_min":0,"x_max":322,"ha":322,"o":"m 40 539 l 40 686 l 134 686 l 134 539 l 113 407 l 62 407 z m 188 539 l 188 686 l 282 686 l 282 539 l 261 407 l 209 407 z"},"7":{"x_min":0,"x_max":456,"ha":456,"o":"m 315 593 l 30 593 l 30 686 l 426 686 l 426 624 q 338 492 278 345 q 217 198 217 51 q 217 24 218 0 l 113 0 q 113 157 172 311 q 230 465 315 593 z"},"S":{"x_min":0,"x_max":547,"ha":547,"o":"m 38 196 l 39 217 l 143 217 l 142 197 q 142 140 177 109 q 212 78 270 78 q 334 78 368 106 q 401 133 401 182 q 401 218 382 241 q 362 264 332 278 q 303 291 252 307 q 188 328 148 348 q 108 368 80 408 q 52 447 52 511 q 52 602 114 650 q 177 698 273 698 q 369 698 430 649 q 491 600 491 502 l 491 490 l 387 490 l 387 503 q 387 552 356 580 q 324 608 274 608 q 221 608 189 585 q 157 562 157 519 q 157 487 176 466 q 195 444 224 431 q 253 418 302 403 q 367 382 408 362 q 448 342 477 303 q 506 264 506 201 q 506 90 442 39 q 379 -12 270 -12 q 168 -12 103 40 q 38 91 38 196 z"},"}":{"x_min":0,"x_max":288,"ha":288,"o":"m 20 -96 q 53 -96 76 -81 q 99 -66 99 -28 q 99 13 103 97 l 106 175 q 108 229 130 256 q 151 283 201 283 l 201 293 q 151 293 130 320 q 108 347 106 401 l 103 479 q 99 563 99 604 q 99 642 76 657 q 53 672 20 672 l 20 735 q 99 735 144 704 q 190 673 190 587 l 190 391 q 190 360 213 346 q 236 331 267 331 l 267 245 q 236 245 213 230 q 190 216 190 185 l 190 -11 q 190 -97 144 -128 q 99 -159 20 -159 z"},"Z":{"x_min":0,"x_max":501,"ha":501,"o":"m 19 41 l 331 595 l 40 595 l 40 686 l 472 686 l 472 644 l 160 91 l 479 91 l 479 0 l 19 0 z"},"x":{"x_min":0,"x_max":425,"ha":425,"o":"m 158 268 l 14 526 l 125 526 l 214 355 l 216 355 l 308 526 l 412 526 l 266 274 l 419 0 l 308 0 l 211 186 l 208 186 l 108 0 l 6 0 z"},")":{"x_min":0,"x_max":273,"ha":273,"o":"m 143 290 q 143 402 108 520 q 72 638 15 735 l 77 735 q 154 643 195 527 q 236 411 236 288 q 236 165 195 50 q 154 -65 77 -157 l 15 -157 q 72 -61 108 58 q 143 178 143 290 z"},"&":{"x_min":0,"x_max":561,"ha":561,"o":"m 440 0 l 401 54 q 364 21 320 4 q 277 -13 232 -13 q 172 -13 128 12 q 85 38 62 82 q 39 126 39 182 q 39 244 69 300 q 99 357 156 392 q 113 456 113 528 q 113 575 132 614 q 152 652 188 675 q 225 698 275 698 q 336 698 376 659 q 416 620 416 554 q 416 489 380 440 q 343 391 287 361 l 401 204 q 424 264 424 348 l 512 348 q 512 218 458 126 l 550 0 z m 205 531 q 205 503 214 474 q 223 446 239 424 q 278 441 302 474 q 327 506 327 548 q 327 578 312 598 q 298 617 271 617 q 239 617 222 592 q 205 568 205 531 z m 352 121 l 204 324 q 170 304 152 267 q 133 230 133 188 q 133 136 161 102 q 189 69 239 69 q 269 69 298 82 q 328 95 352 121 z"},"_":{"x_min":0,"x_max":456,"ha":456,"o":"m 0 -68 l 455 -68 l 455 -127 l 0 -127 z"},"v":{"x_min":0,"x_max":425,"ha":425,"o":"m 8 526 l 109 526 l 180 272 q 185 254 190 234 q 194 215 199 197 q 213 138 215 131 l 219 131 l 230 179 q 246 248 253 274 l 322 526 l 417 526 l 262 0 l 163 0 z"},"O":{"x_min":0,"x_max":638,"ha":638,"o":"m 44 343 q 44 519 116 608 q 188 698 319 698 q 450 698 522 608 q 594 519 594 343 q 594 167 522 78 q 450 -12 319 -12 q 188 -12 116 78 q 44 167 44 343 z m 489 318 l 489 368 q 489 485 444 546 q 400 608 319 608 q 238 608 194 546 q 149 485 149 368 l 149 318 q 149 201 194 140 q 238 78 319 78 q 400 78 444 140 q 489 201 489 318 z"},"(":{"x_min":0,"x_max":273,"ha":273,"o":"m 37 288 q 37 411 78 527 q 119 643 196 735 l 258 735 q 201 638 166 520 q 130 402 130 290 q 130 178 166 58 q 201 -61 258 -157 l 196 -157 q 119 -65 78 50 q 37 165 37 288 z"},"C":{"x_min":0,"x_max":592,"ha":592,"o":"m 39 343 q 39 521 108 610 q 177 698 310 698 q 420 698 487 632 q 554 565 554 436 l 451 436 q 451 520 413 564 q 375 608 310 608 q 144 608 144 368 l 144 318 q 144 78 312 78 q 378 78 416 122 q 455 165 455 249 l 554 249 q 554 120 488 54 q 421 -12 310 -12 q 177 -12 108 76 q 39 165 39 343 z"},"W":{"x_min":0,"x_max":774,"ha":774,"o":"m 7 686 l 111 686 l 208 228 q 216 194 227 115 l 231 115 q 238 181 247 228 l 327 686 l 456 686 l 540 228 q 548 188 557 115 l 561 115 q 570 189 579 228 l 677 686 l 767 686 l 611 0 l 492 0 l 405 456 q 397 497 388 581 l 384 581 q 374 495 367 456 l 281 0 l 163 0 z"},"A":{"x_min":0,"x_max":561,"ha":561,"o":"m 218 686 l 343 686 l 562 0 l 455 0 l 410 147 l 144 147 l 99 0 l -1 0 z m 382 238 l 296 519 q 288 545 279 600 l 275 600 q 266 543 258 519 l 171 238 z"},"f":{"x_min":0,"x_max":242,"ha":242,"o":"m 57 444 l 9 444 l 9 526 l 57 526 l 57 604 q 57 658 83 694 q 109 731 168 731 q 186 731 206 728 q 227 724 242 719 l 242 652 l 197 652 q 151 652 151 605 l 151 526 l 242 526 l 242 444 l 151 444 l 151 0 l 57 0 z"},"Q":{"x_min":0,"x_max":638,"ha":638,"o":"m 331 -12 l 319 -12 q 188 -12 116 78 q 44 167 44 343 q 44 519 116 608 q 188 698 319 698 q 450 698 522 608 q 594 519 594 343 q 594 211 553 128 q 512 44 435 10 l 574 -124 l 444 -124 z m 489 318 l 489 368 q 489 485 444 546 q 400 608 319 608 q 238 608 194 546 q 149 485 149 368 l 149 318 q 149 201 194 140 q 238 78 319 78 q 400 78 444 140 q 489 201 489 318 z"},"w":{"x_min":0,"x_max":607,"ha":607,"o":"m 1 526 l 100 526 l 161 255 q 172 206 182 118 l 186 118 q 194 197 204 255 l 255 526 l 358 526 l 409 255 q 418 205 427 118 l 431 118 q 442 198 453 255 l 513 526 l 605 526 l 475 0 l 375 0 l 321 285 q 311 335 305 408 l 300 408 q 295 337 285 285 l 232 0 l 131 0 z"},"-":{"x_min":0,"x_max":273,"ha":273,"o":"m 12 322 l 260 322 l 260 218 l 12 218 z"},"E":{"x_min":0,"x_max":547,"ha":547,"o":"m 67 686 l 494 686 l 494 595 l 167 595 l 167 396 l 450 396 l 450 306 l 167 306 l 167 91 l 500 91 l 500 0 l 67 0 z"},"s":{"x_min":0,"x_max":425,"ha":425,"o":"m 33 146 q 33 157 34 160 q 34 164 34 165 l 131 165 l 131 156 q 132 111 154 90 q 177 68 213 68 q 245 68 267 86 q 289 105 289 140 q 289 166 276 182 q 262 199 242 208 q 222 218 187 230 q 141 245 112 260 q 84 274 64 304 q 44 335 44 385 q 44 457 91 498 q 138 538 215 538 q 288 538 332 498 q 375 457 375 394 l 374 374 l 277 374 l 277 381 q 277 415 260 436 q 244 458 209 458 q 173 458 156 438 q 140 418 140 392 q 140 360 164 344 q 187 329 236 314 q 284 299 314 284 q 343 269 364 238 q 386 206 386 153 q 386 69 338 28 q 290 -12 209 -12 q 123 -12 78 33 q 33 78 33 146 z"},">":{"x_min":0,"x_max":479,"ha":479,"o":"m 41 99 l 352 256 l 41 414 l 41 513 l 439 312 l 439 199 l 41 0 z"},"l":{"x_min":0,"x_max":197,"ha":197,"o":"m 51 723 l 145 723 l 145 0 l 51 0 z"},"8":{"x_min":0,"x_max":456,"ha":456,"o":"m 37 188 q 37 308 125 352 q 89 376 70 416 q 51 457 51 507 q 51 590 98 644 q 144 698 228 698 q 312 698 358 644 q 405 590 405 507 q 405 457 386 416 q 367 376 330 352 q 419 308 419 188 q 419 99 372 44 q 324 -12 228 -12 q 132 -12 84 44 q 37 99 37 188 z m 312 504 q 312 557 290 586 q 267 616 228 616 q 189 616 167 586 q 145 557 145 504 q 145 451 168 421 q 190 391 228 391 q 267 391 290 421 q 312 451 312 504 z m 323 190 q 323 247 298 278 q 274 310 228 310 q 182 310 158 278 q 133 247 133 190 q 133 133 158 102 q 182 70 228 70 q 274 70 298 102 q 323 133 323 190 z"},"\\":{"x_min":0,"x_max":228,"ha":228,"o":"m 1 735 l 76 735 l 228 -49 l 152 -49 z"},"e":{"x_min":0,"x_max":456,"ha":456,"o":"m 39 263 q 39 404 88 471 q 138 538 238 538 q 328 538 372 476 q 416 415 416 282 l 416 237 l 137 237 q 138 151 162 110 q 187 69 241 69 q 278 69 300 99 q 323 129 323 181 l 416 181 q 416 91 368 40 q 319 -12 240 -12 q 139 -12 89 54 q 39 120 39 263 z m 318 315 q 318 384 298 420 q 278 457 238 457 q 190 457 166 422 q 143 387 138 315 z"},"b":{"x_min":0,"x_max":470,"ha":470,"o":"m 149 62 l 144 62 l 132 0 l 58 0 l 58 723 l 152 723 l 152 475 l 157 475 q 171 505 202 522 q 232 538 271 538 q 342 538 386 470 q 430 401 430 264 q 430 124 386 56 q 343 -12 265 -12 q 228 -12 198 7 q 168 26 149 62 z m 332 244 l 332 282 q 332 371 310 412 q 288 454 242 454 q 152 454 152 279 l 152 244 q 152 72 242 72 q 288 72 310 114 q 332 155 332 244 z"},"%":{"x_min":0,"x_max":729,"ha":729,"o":"m 42 517 q 42 617 75 658 q 108 698 173 698 q 238 698 271 658 q 304 617 304 517 q 304 418 271 378 q 238 337 173 337 q 108 337 75 378 q 42 418 42 517 z m 540 686 l 615 686 l 196 0 l 122 0 z m 229 510 l 229 525 q 229 578 217 606 q 205 635 173 635 q 141 635 129 606 q 117 578 117 525 l 117 510 q 117 457 129 428 q 141 400 173 400 q 205 400 217 428 q 229 457 229 510 z m 431 168 q 431 267 464 308 q 497 349 562 349 q 627 349 660 308 q 694 267 694 168 q 694 69 661 28 q 628 -12 562 -12 q 497 -12 464 28 q 431 69 431 168 z m 618 161 l 618 176 q 618 230 606 258 q 594 286 562 286 q 531 286 519 258 q 507 230 507 176 l 507 161 q 507 108 519 80 q 531 51 562 51 q 594 51 606 79 q 618 107 618 161 z"},"m":{"x_min":0,"x_max":698,"ha":698,"o":"m 58 526 l 132 526 l 144 464 l 150 464 q 170 500 201 519 q 232 538 271 538 q 356 538 384 462 q 404 497 439 518 q 474 538 514 538 q 640 538 640 376 l 640 0 l 546 0 l 546 361 q 546 412 530 433 q 513 454 481 454 q 445 454 420 418 q 396 383 396 324 l 396 0 l 303 0 l 303 361 q 303 412 286 433 q 269 454 237 454 q 201 454 176 418 q 152 382 152 322 l 152 0 l 58 0 z"},"#":{"x_min":0,"x_max":456,"ha":456,"o":"m 71 184 l 8 184 l 8 263 l 89 263 l 122 413 l 47 413 l 47 492 l 140 492 l 186 697 l 266 697 l 220 492 l 305 492 l 351 697 l 431 697 l 385 492 l 445 492 l 445 413 l 367 413 l 334 263 l 406 263 l 406 184 l 316 184 l 275 0 l 195 0 l 236 184 l 151 184 l 110 0 l 30 0 z m 254 263 l 287 413 l 202 413 l 169 263 z"},",":{"x_min":0,"x_max":228,"ha":228,"o":"m 103 0 l 58 0 l 58 117 l 170 117 l 170 10 l 116 -134 l 58 -134 z"},"n":{"x_min":0,"x_max":470,"ha":470,"o":"m 58 526 l 132 526 l 144 464 l 150 464 q 171 500 204 519 q 237 538 279 538 q 412 538 412 376 l 412 0 l 318 0 l 318 361 q 318 412 300 433 q 281 454 245 454 q 206 454 179 418 q 152 381 152 322 l 152 0 l 58 0 z"},"h":{"x_min":0,"x_max":470,"ha":470,"o":"m 58 723 l 152 723 l 152 471 l 158 471 q 199 538 279 538 q 412 538 412 376 l 412 0 l 318 0 l 318 361 q 318 412 300 433 q 281 454 245 454 q 206 454 179 418 q 152 381 152 322 l 152 0 l 58 0 z"},"z":{"x_min":0,"x_max":410,"ha":410,"o":"m 23 43 l 246 444 l 38 444 l 38 526 l 375 526 l 375 484 l 151 82 l 386 82 l 386 0 l 23 0 z"},"B":{"x_min":0,"x_max":561,"ha":561,"o":"m 63 686 l 334 686 q 386 686 427 665 q 468 644 492 606 q 515 567 515 517 q 515 460 486 418 q 456 376 410 360 l 410 356 q 463 340 497 294 q 531 247 531 183 q 531 127 504 86 q 478 44 433 22 q 388 0 334 0 l 63 0 z m 306 396 q 353 396 382 426 q 410 455 410 497 q 410 545 384 570 q 358 595 312 595 l 164 595 l 164 396 z m 320 91 q 367 91 396 118 q 426 146 426 196 q 426 242 396 274 q 365 306 314 306 l 164 306 l 164 91 z"},"K":{"x_min":0,"x_max":561,"ha":561,"o":"m 67 686 l 168 686 l 168 327 l 433 686 l 545 686 l 340 408 l 552 0 l 438 0 l 277 326 l 168 201 l 168 0 l 67 0 z"},"R":{"x_min":0,"x_max":592,"ha":592,"o":"m 67 686 l 346 686 q 446 686 500 634 q 553 581 553 494 q 553 431 521 384 q 489 337 433 317 l 569 0 l 458 0 l 335 298 l 167 298 l 167 0 l 67 0 z m 339 388 q 389 388 418 417 q 446 446 446 494 q 446 541 419 568 q 392 595 340 595 l 167 595 l 167 388 z"},"T":{"x_min":0,"x_max":501,"ha":501,"o":"m 200 595 l 18 595 l 18 686 l 482 686 l 482 595 l 301 595 l 301 0 l 200 0 z"},"P":{"x_min":0,"x_max":547,"ha":547,"o":"m 67 686 l 312 686 q 412 686 466 631 q 520 576 520 484 q 520 391 464 334 q 407 278 312 278 l 167 278 l 167 0 l 67 0 z m 306 368 q 356 368 386 400 q 415 431 415 484 q 415 536 386 566 q 358 595 306 595 l 167 595 l 167 368 z"},"|":{"x_min":0,"x_max":218,"ha":218,"o":"m 68 723 l 150 723 l 150 -173 l 68 -173 z"},"t":{"x_min":0,"x_max":242,"ha":242,"o":"m 60 117 l 60 444 l 12 444 l 12 526 l 60 526 l 78 673 l 154 673 l 154 526 l 227 526 l 227 444 l 154 444 l 154 116 q 154 94 166 82 q 177 70 199 70 l 227 70 l 227 3 q 216 -3 198 -7 q 179 -11 163 -11 q 108 -11 84 26 q 60 63 60 117 z"},"M":{"x_min":0,"x_max":683,"ha":683,"o":"m 59 686 l 208 686 l 317 259 q 328 212 342 104 l 346 104 q 357 215 368 259 l 478 686 l 624 686 l 624 0 l 526 0 l 526 479 q 526 504 533 586 l 529 586 l 522 556 q 511 500 505 479 l 381 0 l 292 0 l 168 480 q 158 520 146 586 l 142 586 q 148 500 148 479 l 148 0 l 59 0 z"},"g":{"x_min":0,"x_max":470,"ha":470,"o":"m 14 -58 q 14 -20 32 10 q 51 39 82 52 q 62 65 50 86 q 39 107 39 131 q 39 163 60 186 q 80 210 114 222 q 84 246 68 281 q 52 316 52 360 q 52 443 100 490 q 147 538 231 538 q 277 538 311 520 q 365 553 371 612 l 452 612 q 452 562 429 528 q 406 494 365 483 q 410 435 410 360 q 410 279 363 231 q 316 183 234 183 l 180 183 q 161 183 148 170 q 136 158 136 140 q 136 123 148 111 q 161 99 179 99 l 339 99 q 393 99 427 62 q 461 26 461 -29 q 461 -96 418 -139 q 375 -182 302 -182 l 140 -182 q 82 -182 48 -147 q 14 -112 14 -58 z m 315 360 q 315 410 294 436 q 272 463 230 463 q 189 463 168 436 q 146 409 146 360 q 146 311 168 284 q 189 257 230 257 q 271 257 293 284 q 315 312 315 360 z m 307 -105 q 332 -105 349 -88 q 366 -72 366 -47 q 366 -22 351 -6 q 336 10 309 10 l 165 10 q 138 10 123 -6 q 108 -22 108 -47 q 108 -72 124 -88 q 139 -105 165 -105 z"},"j":{"x_min":0,"x_max":197,"ha":197,"o":"m -40 -170 l -40 -103 l 4 -103 q 51 -103 51 -55 l 51 526 l 145 526 l 145 -55 q 145 -110 120 -146 q 95 -182 36 -182 q -2 -182 -40 -170 z m 50 723 l 146 723 l 146 622 l 50 622 z"},"i":{"x_min":0,"x_max":228,"ha":228,"o":"m 67 526 l 161 526 l 161 0 l 67 0 z m 65 723 l 161 723 l 161 622 l 65 622 z"},"y":{"x_min":0,"x_max":425,"ha":425,"o":"m 40 -174 l 40 -106 l 77 -106 q 150 -106 174 0 l 8 526 l 110 526 l 196 233 q 204 206 213 165 q 222 129 223 126 l 227 126 q 229 134 233 156 q 245 213 251 234 l 322 526 l 417 526 l 280 27 q 253 -71 212 -126 q 171 -182 105 -182 q 64 -182 40 -174 z"},"@":{"x_min":0,"x_max":822,"ha":822,"o":"m 39 262 q 39 415 90 512 q 141 610 227 654 q 313 698 422 698 q 587 698 685 606 q 783 513 783 321 q 783 215 754 148 q 724 81 680 52 q 636 22 591 22 q 549 22 528 38 q 506 54 497 84 l 493 84 q 451 21 375 21 q 328 21 290 50 q 251 80 251 155 q 251 247 314 282 q 376 318 492 318 l 492 376 q 492 411 478 430 q 463 448 424 448 q 388 448 372 428 q 356 409 356 380 l 356 368 l 272 368 q 271 374 271 388 q 271 451 314 486 q 357 521 427 521 q 502 521 540 486 q 577 451 577 385 l 577 134 q 577 96 610 96 q 655 96 688 149 q 720 202 720 322 q 720 483 640 561 q 560 639 421 639 q 270 639 186 544 q 101 448 101 261 q 101 83 172 -6 q 243 -94 390 -94 q 424 -94 472 -84 q 519 -75 543 -62 l 543 -126 q 515 -137 468 -145 q 422 -153 390 -153 q 222 -153 130 -51 q 39 51 39 262 z m 492 209 l 492 247 q 418 247 379 229 q 340 211 340 162 q 340 127 355 111 q 370 95 401 95 q 439 95 466 126 q 492 157 492 209 z"},".":{"x_min":0,"x_max":228,"ha":228,"o":"m 58 117 l 170 117 l 170 0 l 58 0 z"},"p":{"x_min":0,"x_max":470,"ha":470,"o":"m 58 526 l 132 526 l 144 464 l 149 464 q 168 500 198 519 q 228 538 265 538 q 343 538 386 470 q 430 402 430 262 q 430 125 386 56 q 342 -12 271 -12 q 232 -12 202 4 q 171 21 157 49 l 152 49 l 152 -173 l 58 -173 z m 332 244 l 332 282 q 332 371 310 412 q 288 454 242 454 q 152 454 152 282 l 152 245 q 152 72 242 72 q 288 72 310 114 q 332 155 332 244 z"},"X":{"x_min":0,"x_max":547,"ha":547,"o":"m 214 357 l 22 686 l 138 686 l 275 448 l 277 448 l 417 686 l 523 686 l 331 363 l 544 0 l 428 0 l 271 273 l 269 273 l 109 0 l 3 0 z"},"*":{"x_min":0,"x_max":319,"ha":319,"o":"m 133 500 l 56 446 l 20 507 l 106 547 l 20 587 l 56 647 l 133 593 l 124 686 l 195 686 l 186 594 l 263 647 l 298 587 l 213 547 l 298 507 l 263 446 l 186 500 l 195 407 l 124 407 z"},"Y":{"x_min":0,"x_max":547,"ha":547,"o":"m 224 276 l 5 686 l 114 686 l 278 373 l 282 373 l 443 686 l 542 686 l 324 276 l 324 0 l 224 0 z"},"c":{"x_min":0,"x_max":425,"ha":425,"o":"m 38 263 q 38 404 83 471 q 128 538 222 538 q 391 538 391 330 l 294 330 q 294 396 278 426 q 262 456 222 456 q 178 456 157 412 q 136 369 136 282 l 136 244 q 136 156 157 113 q 178 70 224 70 q 263 70 280 102 q 298 133 298 196 l 391 196 q 391 101 349 44 q 307 -12 224 -12 q 127 -12 82 54 q 38 121 38 263 z"},"!":{"x_min":0,"x_max":242,"ha":242,"o":"m 60 686 l 186 686 l 156 179 l 88 179 z m 67 117 l 179 117 l 179 0 l 67 0 z"},"/":{"x_min":0,"x_max":228,"ha":228,"o":"m 153 735 l 228 735 l 77 -49 l 1 -49 z"},"[":{"x_min":0,"x_max":242,"ha":242,"o":"m 49 735 l 221 735 l 221 661 l 138 661 l 138 -87 l 221 -87 l 221 -161 l 49 -161 z"},"6":{"x_min":0,"x_max":456,"ha":456,"o":"m 37 323 q 37 463 60 546 q 82 628 124 663 q 167 698 231 698 q 317 698 359 637 q 401 576 401 475 l 306 475 q 306 543 286 580 q 267 616 227 616 q 173 616 154 556 q 135 495 133 369 q 154 399 184 415 q 214 431 250 431 q 332 431 376 370 q 419 308 419 210 q 419 143 396 92 q 372 42 330 15 q 289 -12 237 -12 q 138 -12 88 64 q 37 141 37 323 z m 323 210 q 323 272 300 312 q 277 351 232 351 q 187 351 164 312 q 140 272 140 210 q 140 148 164 109 q 187 70 232 70 q 277 70 300 109 q 323 148 323 210 z"},"r":{"x_min":0,"x_max":288,"ha":288,"o":"m 58 526 l 132 526 l 144 454 l 150 454 q 178 538 240 538 q 264 538 282 530 l 282 435 l 250 435 q 207 435 180 406 q 152 377 152 312 l 152 0 l 58 0 z"},"2":{"x_min":0,"x_max":456,"ha":456,"o":"m 37 16 q 37 100 93 179 q 121 218 178 279 q 224 330 250 364 q 277 397 296 438 q 314 478 314 521 q 314 559 294 586 q 275 613 231 613 q 185 613 164 579 q 143 545 143 491 l 143 450 l 46 450 q 43 467 43 490 q 43 594 96 646 q 150 698 233 698 q 313 698 363 654 q 413 610 413 520 q 413 464 390 412 q 367 361 335 320 q 303 279 252 222 q 198 162 173 127 q 160 110 154 93 l 416 93 l 416 0 l 37 0 z"},"{":{"x_min":0,"x_max":288,"ha":288,"o":"m 98 -11 l 98 185 q 98 216 75 230 q 52 245 21 245 l 21 331 q 52 331 75 346 q 98 360 98 391 l 98 587 q 98 673 144 704 q 189 735 268 735 l 268 672 q 235 672 212 657 q 189 642 189 604 q 189 534 184 446 l 182 401 q 180 347 158 320 q 137 293 88 293 l 88 283 q 137 283 158 256 q 180 229 182 175 l 184 130 q 189 42 189 -28 q 189 -66 212 -81 q 235 -96 268 -96 l 268 -159 q 189 -159 144 -128 q 98 -97 98 -11 z"},"9":{"x_min":0,"x_max":456,"ha":456,"o":"m 55 211 l 150 211 q 150 143 170 106 q 191 70 232 70 q 284 70 302 130 q 321 191 323 316 q 302 287 272 271 q 241 255 206 255 q 124 255 80 316 q 37 378 37 476 q 37 543 60 594 q 84 644 126 671 q 167 698 219 698 q 318 698 368 622 q 419 545 419 363 q 419 224 397 141 q 375 58 333 23 q 291 -12 228 -12 q 141 -12 98 49 q 55 110 55 211 z m 316 476 q 316 538 292 577 q 269 616 224 616 q 179 616 156 577 q 133 538 133 476 q 133 414 156 374 q 179 335 224 335 q 269 335 292 374 q 316 414 316 476 z"}," ":{"x_min":0,"x_max":228,"ha":228,"o":""},"I":{"x_min":0,"x_max":228,"ha":228,"o":"m 64 686 l 164 686 l 164 0 l 64 0 z"},"H":{"x_min":0,"x_max":592,"ha":592,"o":"m 67 686 l 167 686 l 167 396 l 425 396 l 425 686 l 525 686 l 525 0 l 425 0 l 425 306 l 167 306 l 167 0 l 67 0 z"},"4":{"x_min":0,"x_max":456,"ha":456,"o":"m 276 165 l 16 165 l 16 246 q 70 342 116 462 q 163 581 193 698 l 287 698 q 270 614 234 521 q 199 428 162 353 q 124 278 102 246 l 276 246 l 276 443 q 304 509 325 596 l 370 596 l 370 246 l 440 246 l 440 165 l 370 165 l 370 0 l 276 0 z"},"~":{"x_min":0,"x_max":479,"ha":479,"o":"m 32 307 q 50 338 82 359 q 113 380 152 380 q 173 380 192 372 q 212 365 238 350 q 265 335 285 327 q 305 319 327 319 q 361 319 393 340 q 425 361 447 392 l 447 292 q 429 261 398 240 q 366 219 327 219 q 306 219 286 226 q 267 234 241 249 q 214 264 194 272 q 174 280 152 280 q 118 280 86 259 q 54 238 32 207 z"},"D":{"x_min":0,"x_max":592,"ha":592,"o":"m 67 686 l 283 686 q 409 686 478 601 q 548 516 548 353 q 548 180 478 90 q 409 0 283 0 l 67 0 z m 274 91 q 354 91 398 151 q 443 211 443 328 l 443 378 q 443 485 398 540 q 354 595 274 595 l 167 595 l 167 91 z"},"^":{"x_min":0,"x_max":415,"ha":415,"o":"m 155 686 l 262 686 l 405 294 l 309 294 l 208 595 l 109 294 l 13 294 z"},"0":{"x_min":0,"x_max":456,"ha":456,"o":"m 37 343 q 37 479 59 557 q 81 635 123 666 q 165 698 228 698 q 291 698 332 666 q 374 634 396 556 q 419 479 419 343 q 419 207 396 130 q 374 52 332 20 q 291 -12 228 -12 q 165 -12 123 20 q 81 51 59 129 q 37 207 37 343 z m 322 308 l 322 378 q 322 496 302 556 q 281 616 228 616 q 175 616 154 556 q 134 496 134 378 l 134 308 q 134 190 154 130 q 175 70 228 70 q 281 70 302 130 q 322 190 322 308 z"},"F":{"x_min":0,"x_max":501,"ha":501,"o":"m 67 686 l 465 686 l 465 595 l 167 595 l 167 389 l 428 389 l 428 298 l 167 298 l 167 0 l 67 0 z"},"`":{"x_min":0,"x_max":273,"ha":273,"o":"m 25 720 l 26 723 l 126 723 l 212 591 l 133 591 z"},"k":{"x_min":0,"x_max":425,"ha":425,"o":"m 58 723 l 152 723 l 152 293 l 315 526 l 418 526 l 262 311 l 426 0 l 320 0 l 204 233 l 152 174 l 152 0 l 58 0 z"},"u":{"x_min":0,"x_max":470,"ha":470,"o":"m 58 150 l 58 526 l 152 526 l 152 165 q 152 114 170 93 q 189 72 225 72 q 264 72 291 108 q 318 145 318 203 l 318 526 l 412 526 l 412 0 l 338 0 l 326 62 l 320 62 q 299 26 266 7 q 233 -12 192 -12 q 58 -12 58 150 z"},"]":{"x_min":0,"x_max":242,"ha":242,"o":"m 22 -87 l 105 -87 l 105 661 l 22 661 l 22 735 l 193 735 l 193 -161 l 22 -161 z"},"U":{"x_min":0,"x_max":592,"ha":592,"o":"m 67 220 l 67 686 l 168 686 l 168 218 q 168 150 202 114 q 235 78 296 78 q 357 78 391 114 q 425 151 425 218 l 425 686 l 525 686 l 525 220 q 525 107 465 48 q 405 -12 296 -12 q 187 -12 127 48 q 67 107 67 220 z"},"o":{"x_min":0,"x_max":470,"ha":470,"o":"m 40 263 q 40 403 89 470 q 138 538 235 538 q 333 538 382 470 q 430 403 430 263 q 430 123 382 56 q 333 -12 235 -12 q 138 -12 89 56 q 40 123 40 263 z m 332 244 l 332 282 q 332 456 235 456 q 186 456 162 412 q 139 369 139 282 l 139 244 q 139 157 162 114 q 186 70 235 70 q 332 70 332 244 z"},"N":{"x_min":0,"x_max":592,"ha":592,"o":"m 67 686 l 155 686 l 396 272 q 409 250 434 189 l 437 190 l 435 270 l 435 686 l 525 686 l 525 0 l 439 0 l 196 418 q 183 442 157 502 l 153 500 q 157 443 157 420 l 157 0 l 67 0 z"},"+":{"x_min":0,"x_max":479,"ha":479,"o":"m 194 210 l 40 210 l 40 300 l 194 300 l 194 511 l 283 511 l 283 300 l 438 300 l 438 210 l 283 210 l 283 0 l 194 0 z"},"G":{"x_min":0,"x_max":638,"ha":638,"o":"m 304 362 l 577 362 l 577 0 l 512 0 l 492 76 q 430 -12 313 -12 q 182 -12 113 76 q 44 165 44 343 q 44 519 117 608 q 190 698 324 698 q 396 698 454 670 q 511 642 544 586 q 577 530 577 450 l 474 450 q 474 528 433 568 q 392 608 323 608 q 239 608 194 547 q 149 486 149 368 l 149 318 q 149 199 192 138 q 235 78 320 78 q 397 78 436 125 q 474 172 474 264 l 474 275 l 304 275 z"},"q":{"x_min":0,"x_max":470,"ha":470,"o":"m 318 49 l 313 49 q 299 21 268 4 q 238 -12 199 -12 q 128 -12 84 56 q 40 125 40 262 q 40 402 84 470 q 127 538 205 538 q 242 538 272 519 q 302 500 321 464 l 326 464 l 338 526 l 412 526 l 412 -173 l 318 -173 z m 318 245 l 318 282 q 318 368 296 411 q 274 454 228 454 q 182 454 160 413 q 139 372 139 282 l 139 244 q 139 154 160 113 q 182 72 228 72 q 318 72 318 245 z"},"d":{"x_min":0,"x_max":470,"ha":470,"o":"m 40 264 q 40 401 84 470 q 128 538 199 538 q 238 538 268 522 q 299 505 313 475 l 318 475 l 318 723 l 412 723 l 412 0 l 338 0 l 326 62 l 321 62 q 302 26 272 7 q 242 -12 205 -12 q 127 -12 84 56 q 40 124 40 264 z m 318 244 l 318 279 q 318 454 228 454 q 182 454 160 413 q 139 372 139 282 l 139 244 q 139 154 160 113 q 182 72 228 72 q 274 72 296 115 q 318 158 318 244 z"},"1":{"x_min":0,"x_max":456,"ha":456,"o":"m 47 82 l 207 82 l 207 551 l 46 551 l 46 612 q 91 617 152 638 q 214 658 260 686 l 301 686 l 301 82 l 448 82 l 448 0 l 47 0 z"},"5":{"x_min":0,"x_max":456,"ha":456,"o":"m 37 213 l 134 213 q 134 148 162 108 q 189 69 232 69 q 276 69 302 109 q 329 149 329 224 q 329 290 304 327 q 279 364 239 364 q 208 364 184 344 q 160 325 146 292 l 56 306 l 79 686 l 397 686 l 397 593 l 161 593 l 149 399 q 198 446 263 446 q 335 446 380 390 q 426 333 426 224 q 426 112 374 50 q 323 -12 232 -12 q 143 -12 90 48 q 37 109 37 213 z"}}}
